<svg xmlns="http://www.w3.org/2000/svg" data-name="Layer 1" viewBox="0 0 650 512" id="opps"><path fill="#dbe8ec" d="M551.32043,243.6945V225.50333A13.07945,13.07945,0,0,0,538.241,212.42388H492.075a13.07945,13.07945,0,0,1-13.07945-13.07945V181.15327A13.07945,13.07945,0,0,1,492.075,168.07382h1.45764a13.07945,13.07945,0,0,0,13.07945-13.07946V136.8032a13.07945,13.07945,0,0,0-13.07945-13.07945H104.62546A13.07945,13.07945,0,0,0,91.546,136.8032v18.19116a13.07945,13.07945,0,0,0,13.07945,13.07946h0a13.07945,13.07945,0,0,1,13.07946,13.07945v18.19116a13.07945,13.07945,0,0,1-13.07946,13.07945H54.04608a13.07945,13.07945,0,0,0-13.07946,13.07945V243.6945A13.07945,13.07945,0,0,0,54.04608,256.774H73.89266A13.07945,13.07945,0,0,1,86.97211,269.8534v18.19125A13.07945,13.07945,0,0,1,73.89266,301.1241h-.048a13.07945,13.07945,0,0,0-13.07945,13.07945v18.19108A13.07945,13.07945,0,0,0,73.8447,345.47408h2.87138a13.07945,13.07945,0,0,1,13.07945,13.07945v18.19125c-.26376,14.57522-10.204,13.07945-10.204,13.07945a13.07945,13.07945,0,0,0-13.07946,13.07945v18.19116A13.07946,13.07946,0,0,0,79.59158,434.1743h500.963A13.07945,13.07945,0,0,0,593.634,421.09484V402.90368a13.07945,13.07945,0,0,0-13.07945-13.07945H569.21407a13.07945,13.07945,0,0,1-13.07945-13.07945V358.55353a13.07945,13.07945,0,0,1,13.07945-13.07945h26.73985a13.07945,13.07945,0,0,0,13.07946-13.07945V314.20355a13.07945,13.07945,0,0,0-13.07946-13.07945H537.8423a13.07945,13.07945,0,0,1-13.07945-13.07945V269.8534A13.07945,13.07945,0,0,1,537.8423,256.774h.39868A13.07945,13.07945,0,0,0,551.32043,243.6945Z"></path><circle cx="258.498" cy="215.74" r="147.296" fill="#dbe8ec"></circle><path fill="#3086a3" d="M206.05923 358.28558c-1.04657-.01525-2.244-1.19477-5.23176-10.275-6.02074-18.29811-9.031-27.44716-6.46529-38.21958 1.05243-4.41875 3.106-8.642 7.213-17.0888 3.32963-6.84775 4.84435-8.80793 7.17657-14.40386 3.66761-8.7998 3.19544-11.8074 5.05779-16.58089 6.55351-16.79759 30.00831-24.69085 31.98632-22.12455.83724 1.08615-2.52077 3.59451-7.69173 12.78575a88.06211 88.06211 0 00-7.75726 17.61849c-3.80972 12.88558.58127 14.37508-3.06244 27.88627-1.79856 6.66887-3.02417 6.88395-6.69769 18.7071-1.80345 5.80449-1.9241 7.09131-3.95486 14.44742C211.79066 348.57452 209.09755 358.32975 206.05923 358.28558zM187.03316 335.47135c-1.92614 1.49005-6.75246-4.97718-23.42369-15.35461-11.347-7.0633-25.56363-14.30836-26.65265-14.86141-11.08395-5.628-13.72866-6.29621-17.5822-10.442-4.87436-5.24409-3.65059-7.41107-10.50708-17.32837-5.30982-7.68008-6.97121-7.72221-11.08052-14.65069-3.50694-5.91308-7.5676-14.76947-5.68885-16.18913.8815-.66609 2.7989.51042 6.40748 2.77205 5.40447 3.387 6.69943 5.32977 10.10081 7.65562 5.987 4.09379 7.29179 1.7101 13.35173 5.55119 2.4398 1.54653 5.16042 4.48017 10.60146 10.34764 5.368 5.78854 5.53759 6.51272 8.46818 9.24469a68.53061 68.53061 0 0011.16763 8.2071 169.36856 169.36856 0 0119.14223 14.22263C183.84767 315.9652 189.85979 333.28452 187.03316 335.47135z"></path><path fill="#409cb5" d="M95.947,252.2561c6.33988,6.38078,12.60824,12.73521,19.09837,18.85543,1.60969,1.5415,3.25113,3.04961,4.88617,4.56186q2.44353,2.27841,4.93516,4.50333l9.99915,8.86125a235.235,235.235,0,0,0,20.74494,16.94946c3.6497,2.59409,7.42064,5.00884,11.17117,7.4952a104.33517,104.33517,0,0,1,10.95172,8.05717,53.15835,53.15835,0,0,1,9.1325,10.316,65.65565,65.65565,0,0,1,6.484,12.17036c3.52495,8.53734,5.43554,17.53533,6.84312,26.42631.68946,4.45777,1.2817,8.91211,1.816,13.36736.26682,2.22064.5409,4.46718.77143,6.71355.22969,2.24678.39882,4.49908.565,6.74923.59625,9.00645-2.12764,9.18274-3.39145.3546-.6299-4.42145-1.33832-8.79067-2.09677-13.21174l-2.22727-13.22365c-1.5238-8.77034-3.04351-17.49961-6.09076-25.68333a72.58006,72.58006,0,0,0-5.60986-11.80461,54.83739,54.83739,0,0,0-7.82906-10.45568,72.88222,72.88222,0,0,0-10.1541-8.56565c-3.631-2.60356-7.3783-5.07592-11.12305-7.55163-7.49047-4.94213-15.15054-9.75631-22.26035-15.331-3.55157-2.78389-6.99681-5.70674-10.282-8.80164q-2.4729-2.31116-4.89179-4.67738-2.39379-2.39254-4.71948-4.8497a173.26669,173.26669,0,0,1-17.05684-20.94929Z"></path><path fill="#409cb5" d="M174.97226,351.8922c-.58444,1.4539-5.93857-1.2832-14.28112,1.17915-6.08594,1.79632-6.56009,4.23415-14.75425,8.165-5.8944,2.82759-10.01068,4.80235-15.35336,4.82194-6.82623.025-8.50171-3.16818-18.66776-5.971a68.52643,68.52643,0,0,0-15.943-2.31863c-16.92919-.819-25.88247,4.5712-27.42177,1.9815-1.67575-2.81931,6.94945-12.54821,17.44029-19.17053,22.06084-13.926,46.16129-10.19547,49.69323-9.59587C158.53312,334.86239,176.08214,349.13059,174.97226,351.8922Z"></path><path fill="#3086a3" d="M73.89306 355.49472a32.65093 32.65093 0 018.87711-5.82408c.81428-.36491 1.645-.69492 2.47218-1.04443.84259-.30026 1.697-.57117 2.54916-.85777.86136-.25052 1.73409-.4658 2.60454-.70013.87046-.2356 1.76665-.341 2.65191-.51386a42.47509 42.47509 0 0110.80335-.39139 25.25133 25.25133 0 012.68957.329l1.33931.20966.66667.10627.60743.11012c1.60935.31564 3.27325.53772 4.94671.70919a121.16444 121.16444 0 0020.62781.27889c6.92974-.49831 13.79809-1.52307 20.79848-2.17984a54.29913 54.29913 0 0110.71139-.06407 21.27375 21.27375 0 015.50728 1.376 11.32314 11.32314 0 014.943 3.73891 56.92205 56.92205 0 015.79182 9.1046 39.07645 39.07645 0 013.29711 10.47052l.38924 2.67433c.13765.8907.17639 1.7788.26288 2.66839.18609 1.78063.21762 3.54606.28 5.31613.0463 1.76732.01028 3.52422.019 5.28385l-.20172 5.25633c-.39981 6.98991-3.12538 6.88456-3.40962-.02157a147.92663 147.92663 0 00-1.88908-20.348 43.48779 43.48779 0 00-2.845-9.38232 57.95958 57.95958 0 00-5.04083-8.66651c-1.39811-2.20972-4.48884-3.36192-7.65912-4.04034a60.2527 60.2527 0 00-10.08052-.99722 153.20078 153.20078 0 00-20.74423 1.20123L124.46448 350.59a75.55157 75.55157 0 01-10.59055.634c-.89584-.04594-1.79084-.05973-2.6932-.15481-.4502-.04161-.90225-.07182-1.35188-.12442l-1.35411-.20943-2.53267-.39325c-.82523-.10714-1.63925-.3245-2.47175-.36367l-2.48878-.22985c-.831-.05606-1.66431-.03561-2.49745-.05871-.41656.00367-.83462-.03835-1.25094-.02157l-1.24982.052c-.83315.04033-1.67252.04082-2.5.16114a48.80629 48.80629 0 00-19.31743 5.94932zM188.53565 264.06115c-2.86947.21-6.43483-10.29932-7.80055-18.90293-1.60149-10.089.5939-12.69067.392-28.99665a147.03152 147.03152 0 00-1.3495-19.35276c-1.69877-12.06753-3.90324-15.26008-5.58741-23.70664-4.058-20.35148 1.09061-40.17711 3.76637-40.22944 1.32832-.02593 1.61452 4.82905 4.65851 12.95272 2.91024 7.76674 5.44582 9.79843 13.11943 22.73436 5.42478 9.14491 8.13726 13.71746 8.91075 16.23251 2.86629 9.31993 1.33327 17.3473-.92172 28.45245-2.588 12.74529-4.71224 12.8701-8.99087 29.41726C191.0146 257.0409 190.82215 263.89374 188.53565 264.06115z"></path><path fill="#409cb5" d="M178.03676,142.48879c3.60351,11.32756,7.04159,22.69349,11.08663,33.76569q.74953,2.0779,1.563,4.12115l.40118,1.04015.40613,1.143a23.45993,23.45993,0,0,1,.63211,2.31945,40.403,40.403,0,0,1,.71068,9.29934,87.99328,87.99328,0,0,1-.75775,9.03888c-.3519,2.97722-.85927,5.913-1.315,8.844-.96756,5.85363-1.96417,11.66669-2.60921,17.5289a98.98273,98.98273,0,0,0-.49788,17.65386,78.024,78.024,0,0,0,1.07725,8.77108c.27317,1.43844.50678,2.92582.75242,4.39857l.36927,2.2123.18971,1.1058.12745,1.113a167.248,167.248,0,0,1,1.27207,17.882c.04275,5.97088-.006,11.957-.36892,17.90424-.31346,5.95212-.81436,11.8814-1.25407,17.78783-.4389,5.90983-.85094,11.80268-.97754,17.66387-.09932,2.93624-.04437,5.84666-.02288,8.76085l.24751,4.33762c.06414,1.44873.33308,2.85582.45746,4.28972,1.569,11.61847,3.93653,23.29,5.71234,35.06351.89969,5.89114-6.71418-10.69136-10.28763-34.43865a97.17664,97.17664,0,0,1-.62805-18.16382c.0944-3.01031.36423-5.98568.5691-8.97208.27358-2.97068.53665-5.94614.85315-8.901l1.866-17.69879c.62634-5.887,1.14264-11.76618,1.46343-17.66618l.10843-4.4233c.01209-.7373.04956-1.47637.04092-2.2131l-.039-2.21038c-.04183-1.473-.01758-2.95346-.11314-4.42418l-.35988-4.40807c-.07474-1.4772-.36938-2.9227-.57419-4.38221-.22723-1.45812-.43684-2.90628-.70182-4.38774-.266-1.47175-.46751-2.95236-.69405-4.43077-.17318-1.484-.37513-2.96676-.48479-4.458a168.76653,168.76653,0,0,1,.93763-35.79268c.67854-5.90066,1.53235-11.75414,1.80936-17.51181a36.7572,36.7572,0,0,0-.48055-8.43106c-.14232-.67046-.28294-1.34132-.47376-1.99045l-.30236-.96777-.36085-1.05188q-.75334-2.12552-1.43631-4.264c-.93665-2.84454-1.74983-5.71954-2.54059-8.59592-.80137-2.87315-1.52384-5.76511-2.21409-8.66255-1.37966-5.79529-2.60922-11.62069-3.58054-17.49926Z"></path><path fill="#3086a3" d="M237.71845,353.27345c-.58489-3.91039,10.21981-10.44092,20.55752-11.00047,1.11006-.06,1.34478-.00422,15.55036,1.82138,11.6528,1.49753,12.94943,1.64691,14.47665,1.80687,14.29471,1.497,12.67807.13826,17.16847,1.3064,8.91782,2.31993,8.776,5.98339,21.341,10.49283,4.82062,1.73,7.42323,2.11744,7.47412,3.32353.09479,2.24254-8.76,4.29852-19.42536,6.7192-13.1751,2.99027-19.76284,4.48558-24.75894,3.96185-9.4759-.99315-9.85459-4.71883-24.03305-9.99218C248.39017,355.1376,238.26777,356.94626,237.71845,353.27345Z"></path><path fill="#409cb5" d="M228.34038 396.25512c-.37611-1.64365-.74284-3.29268-1.0303-4.95712-.29677-1.66288-.57867-3.33147-.80757-5.01035q-.31794-2.52177-.53113-5.065a53.994 53.994 0 01.04186-10.25878 33.9844 33.9844 0 012.54613-10.11074 17.84208 17.84208 0 012.82478-4.51174 12.80594 12.80594 0 011.97538-1.82964 12.2072 12.2072 0 012.35056-1.307 15.41742 15.41742 0 012.52284-.72492c.81812-.18007 1.63623-.35887 2.45-.558l4.916-1.08286a100.13015 100.13015 0 0110.00715-1.73923 40.13969 40.13969 0 0110.36129.15319 54.62746 54.62746 0 019.987 2.629l2.39521.865c.79947.29243 1.53171.52221 2.29766.79178.74725.27735 1.53469.48969 2.31135.71839.77883.22449 1.54939.46579 2.34737.64995 3.14879.82908 6.36607 1.50348 9.58083 2.17658 6.44922 1.29529 12.9782 2.32188 19.54319 3.0927 3.28241.32981 6.57856.6746 9.87889.80463a66.59278 66.59278 0 009.928-.16769l.0996.42124a43.76435 43.76435 0 01-9.96828 1.96006l-2.53588.21985-2.53732.10736c-1.695.07857-3.38413.06334-5.07928.05734-3.381-.074-6.765-.23735-10.13-.58645-3.373-.29255-6.72451-.79455-10.06748-1.36747a93.57166 93.57166 0 01-9.93478-2.36277c-.82239-.22381-1.63757-.51138-2.45384-.78121-.81579-.27446-1.63267-.52992-2.44132-.86307-.79918-.31441-1.643-.63874-2.39863-.956l-2.27481-.94962c-6.07423-2.478-12.22128-4.23057-18.791-4.24539a57.76839 57.76839 0 00-9.85471.81693c-1.64585.22554-3.26924.604-4.90157.92448-.81463.17209-1.62531.36452-2.43555.55569a11.55038 11.55038 0 00-2.26569.72163 9.192 9.192 0 00-3.4961 2.96516 14.38378 14.38378 0 00-1.97283 4.23784 37.8187 37.8187 0 00-1.18825 9.51c-.07545 3.2351.04836 6.494.188 9.76925q.12537 2.45574.36105 4.91593c.13765 1.64128.28583 3.28566.47252 4.928C231.33279 397.3912 228.70759 397.90034 228.34038 396.25512zM225.68786 336.531c-1.91524-1.03953 2.34954-14.2728 8.94732-26.19556 4.392-7.93663 8.72809-15.7724 17.49534-22.85751 10.8451-8.76432 22.37145-11.45127 31.33322-13.54022 14.45118-3.36857 16.32437-.53835 26.37705-4.477 14.61271-5.72529 20.21871-15.45279 22.74163-13.65638 2.62248 1.86732-.6011 14.39515-8.88924 21.89977-4.84486 4.38678-11.19293 6.85144-15.15134 8.38831-7.67792 2.981-10.79032 2.51661-14.58554 6.24759-2.36 2.32007-1.85731 3.18863-6.03732 9.58563-3.40549 5.21173-5.19275 7.94712-7.65562 10.10081-4.31352 3.77205-7.42934 2.90077-19.94779 5.63822-10.4395 2.28278-15.65916 3.42417-21.0364 6.69743C230.0541 329.97753 227.13885 337.31859 225.68786 336.531z"></path><path fill="#3086a3" d="M326.2173,265.91786a7.42286,7.42286,0,0,1-1.57928,3.778c-.42854.51474-.81734,1.09218-1.2931,1.56442-.46827.48123-.94581.96063-1.43126,1.43105a42.18042,42.18042,0,0,1-6.49786,4.67859,78.98423,78.98423,0,0,1-7.0373,3.73086c-1.2065.5389-2.41757,1.071-3.63644,1.58644-1.21036.54266-2.44541,1.00336-3.68131,1.46448l-3.70738,1.39055c-1.24325.44157-2.50417.81439-3.75545,1.225-2.50827.8042-5.00726,1.64234-7.56045,2.26663-5.05554,1.46028-10.21844,2.44846-15.36275,3.46861l.13582-.03706c-1.50736.42869-3.111,1.00282-4.64644,1.602q-2.32293.9048-4.59392,1.971c-1.51077.71238-2.9961,1.4822-4.4625,2.29032-1.44942.83542-2.88819,1.69551-4.28223,2.62513a61.865,61.865,0,0,0-14.66834,13.59653,63.16364,63.16364,0,0,0-5.39654,8.38544,60.52574,60.52574,0,0,0-3.86214,9.11615c-.247.78529-.54153,1.553-.75019,2.349L227.5,336.77833c-.39053,1.61214-.73741,3.24856-1.10817,4.869-.173.81547-.386,1.61729-.53449,2.43985l-.44354,2.46771c-.28445,1.64783-.61608,3.28234-.86215,4.93788-.44368,3.32315-1.00371,6.61977-1.33519,9.963l-.58007,4.99793-.50373,5.0125-.25208,2.50624c-.0663.83805-.13724,1.67562-.22086,2.51174L221.185,381.506l-.80125,10.0671c-1.00455,13.43748-4.47766,13.35754-4.114-.21546a257.51729,257.51729,0,0,1,4.13959-40.58517c.30982-1.67878.70788-3.34749,1.05779-5.02065l.54174-2.50656c.17875-.83611.43262-1.661.65019-2.49029.45794-1.6569.88753-3.31207,1.3691-4.96527l.85032-2.46771c.27585-.8238.63839-1.61725.95378-2.42572a63.938,63.938,0,0,1,11.00743-17.42551A88.83327,88.83327,0,0,1,251.995,299.75987c1.36654-1.0226,2.7829-1.97687,4.21378-2.91022,1.42427-.94485,2.8743-1.85553,4.35909-2.71119q2.213-1.3097,4.51749-2.47945c1.55017-.78035,3.07252-1.50442,4.7653-2.16783l.13624-.03706c2.50644-.701,5.00192-1.43521,7.51653-2.0837,1.25775-.32551,2.51022-.66758,3.75332-1.03558l3.74786-1.03818,3.7502-1.0242,3.72208-1.10154c1.23728-.37568,2.48972-.71564,3.71556-1.12066l3.68282-1.20059c2.48455-.73939,4.84717-1.74937,7.29369-2.584,2.37687-.96919,4.77513-1.92541,7.07046-3.05638.57425-.28232,1.17632-.527,1.72985-.84093l1.67356-.9305c1.155-.57553,2.16857-1.32551,3.259-2.00214l1.50372-1.16028c.51467-.37953.92735-.84629,1.40371-1.26989a7.40993,7.40993,0,0,0,1.97489-3.0758Z"></path><path fill="#409cb5" d="M234.48774 249.19947a32.74419 32.74419 0 00-7.44408 8.266c-.53453.75349-.97817 1.57121-1.44352 2.36835-.4909.77987-.88455 1.622-1.31294 2.43777-.44476.80672-.79634 1.665-1.16382 2.51126l-.55877 1.264-.49238 1.2949a68.71066 68.71066 0 00-3.0726 10.64361c-.70011 3.58693-1.33747 7.4428-2.21773 11.155-.875 3.73214-1.90606 7.4313-3.0267 11.09542-1.1219 3.66411-2.27981 7.30193-3.30984 10.95755a85.08593 85.08593 0 00-2.33807 11.11108c-.13276.93652-.25622 1.874-.35563 2.81564-.1062.94238-.19251 1.88418-.20635 2.81428-.02491.93587-.0978 1.85459-.06785 2.798l.08522 2.82921c.13887 3.77207.47424 7.55313.758 11.33307L209.2139 356.24c.614 7.56559 1.41044 15.12265 2.00282 22.69429.58432 7.57449 1.16353 15.151 1.68342 22.73648 0 0-2.79846 4.15944-3.38766.38678q-.899-5.65854-1.6079-11.33864c-.50152-3.78373-.91706-7.57729-1.29366-11.37414-.73159-7.59677-1.18208-15.21766-1.48142-22.85215a213.9675 213.9675 0 01.0631-22.96405l.19835-2.87993c.07175-.95933.22658-1.934.32713-2.89679.06189-.4808.10316-.96821.18229-1.442l.253-1.41526c.14852-.946.32153-1.88836.50339-2.8293.69495-3.768 1.55395-7.50329 2.43506-11.21632l1.2518-5.57746c.38251-1.86428.7616-3.72522 1.08881-5.59532.66494-3.73751 1.2243-7.48534 1.81231-11.22474.6199-3.7525 1.10265-7.43244 2.01023-11.2893.18042-.95872.4688-1.89694.731-2.83932.2774-.9388.50254-1.89014.82417-2.8165l1.01159-2.76153c.32371-.92337.77623-1.804 1.15842-2.70542l.60336-1.34118.69626-1.30017c.47005-.863.92325-1.73138 1.47221-2.55106a36.01339 36.01339 0 013.44982-4.76631 26.375 26.375 0 019.09114-7.26777zM176.24082 321.36161c4.47056-1.7829 2.83954-16.18055 1.93754-24.14213-1.30059-11.48066-3.43564-13.26144-6.06609-28.00969-1.0724-6.01256-1.68006-12.07747-2.89521-24.20729-1.75525-17.52091-1.57555-20.52115-2.32177-26.885-3.14036-26.77748-15.54007-52.2471-20.25234-51.29571-1.76877.35707-2.31129 4.51938-3.39613 12.84382-1.37967 10.58649 2.20236 14.08431.2393 22.02318-1.09672 4.43491-1.987 3.11076-5.52215 11.20394-4.04987 9.2714-7.102 16.25913-5.15217 23.56143 1.18354 4.4326 3.01 4.4857 4.68755 10.80474 1.21873 4.59077.82529 6.7118 1.4584 11.2983.49428 3.58082 1.35379 6.77777 4.62948 15.10053 5.23563 13.30235 7.85335 19.9537 11.465 25.93448C159.51871 306.98867 170.95436 323.47 176.24082 321.36161z"></path><path fill="#3086a3" d="M146.838,166.72755a55.24907,55.24907,0,0,1,3.41884,7.84707,75.61527,75.61527,0,0,1,2.41062,8.23178,82.22629,82.22629,0,0,1,1.575,8.45431c.20575,1.421.32256,2.8523.48761,4.28083.13585,1.43066.17858,2.86768.26826,4.30365.052,1.43672.04316,2.87516.06725,4.31489.00211,1.439-.07737,2.87691-.1277,4.31648l-.4902,8.45261c-.13225,2.80725-.25841,5.60231-.33759,8.39378-.01147,2.78732-.10239,5.57144.02327,8.34962a161.02058,161.02058,0,0,0,1.41666,16.72662c.72192,5.59062,1.65245,11.17095,2.66952,16.7313.5554,2.76919.99738,5.57743,1.73684,8.27595.355,1.35625.65025,2.72818,1.05326,4.07112.43781,1.33369.89728,2.66048,1.35676,3.986.23633.66032.44038,1.33119.70347,1.98256l.8037,1.95009,1.66189,3.87384c1.21763,2.54768,2.37428,5.10215,3.6386,7.63693l3.75044,7.62236c.61444,1.28026,1.2617,2.54151,1.84927,3.83832l1.75252,3.89495c1.2232,2.57355,2.19026,5.26415,3.2628,7.91008l.787,1.99257c.25867.66569.4672,1.34973.70291,2.024l1.3769,4.0607c.97678,2.69115,1.70264,5.45672,2.48367,8.20781l1.15477,4.13254c.34024,1.38776.63214,2.78629.95032,4.17925l.92739,4.18613c.28977,1.39892.62912,2.79048.82227,4.20458l1.34028,8.45791.3122,2.11724c.09785.70664.14616,1.41812.222,2.12658l.41524,4.25447c.26145,2.83668.59527,5.66883.76068,8.51012.20727,5.68726.58251,11.36749.56235,17.04914,0,0-3.16961,5.746-3.40772.11968-.07524-2.81681-.43449-5.61379-.64818-8.4181l-.68852-8.40554c-.10113-1.40187-.34458-2.78706-.49147-4.18278l-.49743-4.17989-.497-4.1782c-.08912-.69553-.15113-1.39493-.26229-2.08653l-.3513-2.07167-1.31241-8.29812c-.1846-1.39031-.51338-2.75-.793-4.12l-.83114-4.11209c-.28044-1.36962-.53456-2.74692-.83663-4.11175l-1.03818-4.06162c-.69409-2.70763-1.31852-5.43757-2.19981-8.09234-3.17224-10.73016-7.41891-21.11922-11.73967-31.59639-1.10742-2.599-2.12852-5.26458-3.195-7.89014l-1.45064-4.01645-.74513-1.99792c-.24341-.668-.42943-1.35894-.64691-2.03718-.418-1.36218-.83595-2.72351-1.276-4.0771-.39379-1.36819-.68016-2.76833-1.02471-4.15023-.7076-2.77209-1.25123-5.536-1.83115-8.3064l-3.64762-16.60371a126.64359,126.64359,0,0,1-2.66042-16.935,114.52823,114.52823,0,0,1,.08575-17.16384l.64777-8.47332c.07792-1.38465.22855-2.76746.27522-4.15549.031-1.3874.09506-2.77688.09989-4.16632l-.07005-4.17116c-.07764-1.38844-.10614-2.78341-.22311-4.17111-.13561-1.38542-.20892-2.78141-.40083-4.16252-.15293-1.38692-.31472-2.77523-.54388-4.15346-.42061-2.76271-.94238-5.51706-1.602-8.24325a73.7927,73.7927,0,0,0-2.35546-8.08979Z"></path><path fill="#409cb5" d="M198.09419,289.96985c-3.02882-.773-2.78542-13.09184-1.32046-21.50074a66.77715,66.77715,0,0,1,7.80789-21.37734c3.57826-6.1103,5.25436-6.57716,8.22887-12.77849,3.32962-6.94136,2.37309-8.74064,5.036-14.96985,2.90854-6.80373,4.76159-6.323,12.59-17.55315,5.85965-8.40577,8.96962-12.86718,11.00818-19.72274,2.597-8.73342,1.51954-14.84329,2.888-14.99907,1.51587-.17255,4.809,7.09911,4.62947,15.1007-.09876,4.39577-1.17692,5.9623-5.62378,18.72144-3.12537,8.96776-4.69546,13.51409-5.0578,16.5807-.89661,7.58926.97816,9.3596.29738,17.72739-.25116,3.08669-.75307,9.25679-3.42516,14.99181-5.07993,10.90342-13.06424,9.63359-23.92443,21.6965C202.18068,281.93676,200.68745,290.63175,198.09419,289.96985Z"></path><path fill="#3086a3" d="M245.47947,177.23037a22.0424,22.0424,0,0,1-.47782,8.03753,65.0416,65.0416,0,0,1-2.17494,7.70844c-.83855,2.53511-1.83731,5.00419-2.88187,7.45194l-1.61559,3.64855c-.54917,1.21082-1.16215,2.3878-1.74367,3.58254-1.14961,2.39855-2.43344,4.7162-3.67581,7.06275-1.27424,2.32751-2.642,4.5954-3.959,6.89654-1.33335,2.28992-2.7778,4.50857-4.18578,6.751l-4.1519,6.62119a146.50207,146.50207,0,0,0-13.63854,28.19181,150.60622,150.60622,0,0,0-4.3755,15.12265l-.87941,3.83737-.72847,3.87028c-.51641,2.572-.86371,5.17762-1.302,7.76042-.73116,5.19547-1.28959,10.40639-1.75538,15.61476-.20354,2.60669-.43619,5.20876-.57286,7.81129-.07717,1.32926-.14888,2.53639-.10043,3.76925a29.24325,29.24325,0,0,0,.35644,3.69255c1.57255,10.45016,2.89184,20.92989,3.84135,31.45535.88012,10.52918,1.52385,21.09026,1.5803,31.67723.036,10.571-2.40581,21.09422-2.62025,15.84368-.02542-1.31036-.06226-2.62-.143-3.93154l-.17437-3.92985c-.12443-2.61916-.3385-5.23827-.46973-7.855q-1.12224-15.7023-2.77055-31.37153c-1.02283-10.45077-2.08954-20.90889-3.29992-31.34317a33.28082,33.28082,0,0,1-.26954-4.17808,37.41121,37.41121,0,0,1,.24726-4.11993c.25614-2.65038.55948-5.28871.943-7.91665.74046-5.25751,1.77664-10.46324,2.87547-15.64232q1.71406-7.75824,3.81692-15.40422c1.355-5.10839,2.88135-10.16626,4.46969-15.20849,3.21729-10.05473,6.75784-20.12412,11.84266-29.53666,1.33513-2.29582,2.62676-4.68948,4.02542-6.89945l4.15886-6.66719c2.72065-4.47171,5.41614-8.95941,7.94278-13.53142q3.853-6.83179,7.0661-13.9619,1.601-3.56778,2.8573-7.26114l.57529-1.8604c.178-.62342.32182-1.25322.48553-1.88318a15.46137,15.46137,0,0,0,.46075-3.80413Z"></path><path fill="#409cb5" d="M256.1938,242.062c16.18054-10.69743,17.43707-11.00351,21.14529-14.75206,8.59886-8.69234,6.88559-12.14359,14.77411-20.20906,10.26516-10.49531,25.04888-16.80031,28.11132-13.58378,1.59542,1.6757-1.068,4.80408-6.72673,20.85491-4.30675,12.216-3.67393,12.98484-6.13188,16.56618-3.56774,5.19806-8.52959,8.216-18.45309,14.25159-9.11667,5.54481-11.69629,5.76071-16.25428,10.52161-2.711,2.83143-2.85341,3.85717-7.64836,9.56385a113.21066,113.21066,0,0,1-9.81069,10.60872c-6.02887,5.53866-11.321,13.72591-21.92122,12.66438C231.16571,288.33679,237.32144,254.53909,256.1938,242.062Z"></path><path fill="#3086a3" d="M311.6939,202.64277a83.02769,83.02769,0,0,1-10.67554,14.70892,91.26016,91.26016,0,0,1-6.42478,6.49786c-1.10062,1.05832-2.28666,2.02247-3.43691,3.02939-1.1611.99577-2.3979,1.89876-3.59688,2.85089l-3.72583,2.66183-1.77313,1.289c-.59643.422-1.18121.85765-1.73559,1.328l-1.69269,1.37593c-.56728.45493-1.07289.97667-1.61265,1.46073-1.09248.9561-2.05691,2.04292-3.06343,3.08433-1.91543,2.181-3.72319,4.46831-5.44931,6.87766-1.70269,2.42828-3.45712,4.89984-5.32483,7.33561a53.27073,53.27073,0,0,1-6.24854,6.8491,55.1223,55.1223,0,0,1-7.34126,5.63383,29.684,29.684,0,0,0-6.40559,5.86087,59.8358,59.8358,0,0,0-5.101,7.29635,88.6198,88.6198,0,0,0-4.15824,7.93449c-1.21376,2.73343-2.41876,5.47543-3.41136,8.30191a150.2276,150.2276,0,0,0-5.09674,17.20647c-1.37648,5.82315-2.43625,11.71062-3.3545,17.60762-.90181,5.90061-1.63223,11.82256-2.11553,17.7635-.47356,5.94023-.73506,11.89516-.722,17.8445.03,2.97478.05829,5.94742.17037,8.91738.1129,2.97167.31914,5.91965.48591,8.9411.64007,12.02073-3.758,12.30125-4.60776.30559-.39511-5.99341-.72048-12.14064-.57252-18.20578.108-6.08217.51231-12.15231,1.172-18.189.65627-6.03671,1.55531-12.04518,2.76892-17.98851,1.19842-5.94607,2.7396-11.81689,4.48614-17.613,1.70865-5.80978,3.79031-11.4978,6.01356-17.11753a137.0979,137.0979,0,0,1,7.72759-16.41314,71.74613,71.74613,0,0,1,4.922-7.69286,33.3723,33.3723,0,0,1,6.441-6.72556,54.33175,54.33175,0,0,0,12.05564-12.66774c1.72-2.39337,3.30613-4.92809,5.07177-7.41514a68.01408,68.01408,0,0,1,5.771-7.242c1.1-1.10443,2.1595-2.24958,3.34869-3.25893.5879-.51047,1.14418-1.059,1.75786-1.53615l1.83351-1.43914a21.47532,21.47532,0,0,1,1.88944-1.35381l1.92668-1.29327,3.71153-2.44848a116.06462,116.06462,0,0,0,25.72453-24.58931Z"></path><polygon fill="#b9d4db" points="99.034 398.8 87.099 402.204 127.848 412.378 188.005 426.842 238.629 442.292 282.995 429.358 330.891 415.395 484.516 386.062 521.553 388.71 549.44 386.062 541.504 379.115 457.561 379.115 99.034 398.8"></polygon><path fill="#d62828" d="M93.33184,391.33958s7.45113,5.91707,36.379,0S490.04053,365.405,490.04053,365.405l42.68876,11.909s8.10859,1.53406,12.27245-1.534-8.10858,9.42349-23.44914,12.9299S344.917,417.75452,330.89136,415.395c0,0-27.33907-1.53769-39.83066-6.96167,0,0-18.90177,19.06612-52.43184,33.8588,0,0-43.17272,5.3692-58.95158-6.02665s-42.51527-20.16188-58.29413-22.79169S93.33184,391.33958,93.33184,391.33958Z"></path><path fill="#f9ae2b" d="M487.14592,262.60319,305.03156,235.20934V397.25665L487.14592,369.8628v.41827q1.50666-2.30107,2.89461-4.8761c6.84847-12.73815,11.06712-30.15151,11.06712-49.36373s-4.21865-36.62559-11.06712-49.36373q-1.2601-2.35587-2.64807-4.49259Z"></path><path fill="#ee781d" d="M379.77113,246.45347c11.35932,16.18977,18.65522,41.3556,18.65522,69.60779,0,28.48048-7.4146,53.8198-18.93829,69.9913v.00914l49.39113-7.43287c12.36376-11.825,20.80106-35.41112,20.80106-62.56757,0-26.846-8.23642-50.19467-20.37189-62.15666Z"></path><ellipse cx="305.032" cy="316.061" fill="none" rx="44.707" ry="81.195"></ellipse><ellipse cx="305.032" cy="316.061" fill="#ee781d" rx="44.707" ry="81.195"></ellipse><ellipse cx="305.032" cy="316.061" fill="#e06714" rx="38.915" ry="70.676"></ellipse><path fill="#f9ae2b" d="M343.94635,316.06136c-.45843-3.9257-11.15913,6.16361-26.20407,21.58626-10.87874,11.15193-15.51321,15.07709-21.91509,17.532-8.83857,3.38923-11.345.494-17.09374,4.38306-7.94083,5.37176-6.31075,13.02791-12.71079,19.72367-7.71366,8.0699-20.04468,7.37168-27.17471,7.451-30.80817.34287-65.92327,11.849-66.18354,19.72345-.11169,3.37987,6.2218,6.10632,8.32773,7.013,9.58985,4.12825,18.82714.68016,28.05128-1.75336,12.67813-3.34487,22.15607-3.93519,36.37912-4.82113,10.54835-.657,29.29691-.82462,48.21312,0,7.12613.31077,14.17211.75775,19.72367-3.94477,6.12076-5.18473.09265-14.276,8.449-23.10666,5.38966-5.69556,13.28693-15.16382,16.47418-27.04993C342.78691,335.99981,345.35339,328.11038,343.94635,316.06136Z"></path><line x1="55.651" x2="87.954" y1="225.555" y2="225.555" fill="none" stroke="#b9d4db" stroke-miterlimit="10" stroke-width="3"></line><line x1="55.651" x2="87.954" y1="234.866" y2="234.866" fill="none" stroke="#b9d4db" stroke-miterlimit="10" stroke-width="3"></line><line x1="55.651" x2="87.954" y1="244.176" y2="244.176" fill="none" stroke="#b9d4db" stroke-miterlimit="10" stroke-width="3"></line><line x1="293.452" x2="325.754" y1="104.457" y2="104.457" fill="none" stroke="#b9d4db" stroke-miterlimit="10" stroke-width="3"></line><line x1="293.452" x2="325.754" y1="113.767" y2="113.767" fill="none" stroke="#b9d4db" stroke-miterlimit="10" stroke-width="3"></line><line x1="293.452" x2="325.754" y1="123.078" y2="123.078" fill="none" stroke="#b9d4db" stroke-miterlimit="10" stroke-width="3"></line><circle cx="405.107" cy="217.071" r="19.895" fill="#b9d4db"></circle><circle cx="367.09" cy="202.901" r="10.363" fill="#b9d4db"></circle><circle cx="376.608" cy="167.673" r="5.978" fill="#b9d4db"></circle><circle cx="409.7" cy="171.903" r="14.33" fill="#b9d4db"></circle></svg>