<svg xmlns="http://www.w3.org/2000/svg" enable-background="new 0 0 512 512" viewBox="0 0 512 512" id="bank"><path fill="#8b8893" d="M37.8,141.4L253,9.3c1.9-1.1,4.1-1.1,6,0l215.8,132.2l-151.9,15L37.8,141.4z"></path><path fill="#787681" d="M259,9.3c-1.9-1.1-4.1-1.1-6,0l-12,7.4l203.8,124.8h30L259,9.3z"></path><rect width="43" height="222.4" x="80.5" y="211.3" fill="#dadadc"></rect><rect width="43" height="222.4" x="388.5" y="211.3" fill="#dadadc"></rect><rect width="22" height="222.4" x="409.5" y="211.3" fill="#c8c5cc"></rect><path fill="#787681" d="M371.5,178.4h76l0,0v17.9c0,8.3-6.7,15-15,15l0,0h-46c-8.3,0-15-6.7-15-15l0,0V178.4L371.5,178.4z"></path><path fill="#57565c" d="M417.5,178.4v17.9c0,8.3-6.7,15-15,15l0,0h30c8.3,0,15-6.7,15-15l0,0v-17.9H417.5z"></path><path fill="#787681" d="M64.5,178.4h76l0,0v17.9c0,8.3-6.7,15-15,15l0,0h-46c-8.3,0-15-6.7-15-15l0,0V178.4L64.5,178.4z"></path><path fill="#57565c" d="M110.5,178.4v17.9c0,8.3-6.7,15-15,15l0,0h30c8.3,0,15-6.7,15-15l0,0v-17.9H110.5z"></path><path fill="#787681" d="M386.5,411.1h46c8.3,0,15,6.7,15,15l0,0V444l0,0h-76l0,0v-17.9C371.5,417.8,378.2,411.1,386.5,411.1
	L386.5,411.1z"></path><path fill="#57565c" d="M432.5,411.1h-30c8.3,0,15,6.7,15,15l0,0V444h30v-17.9C447.5,417.8,440.8,411.1,432.5,411.1L432.5,411.1z"></path><path fill="#787681" d="M79.5,411.1h46c8.3,0,15,6.7,15,15l0,0V444l0,0h-76l0,0v-17.9C64.5,417.8,71.2,411.1,79.5,411.1L79.5,411.1z"></path><path fill="#57565c" d="M125.5,411.1h-30c8.3,0,15,6.7,15,15l0,0V444h30v-17.9C140.5,417.8,133.8,411.1,125.5,411.1L125.5,411.1z"></path><circle cx="256" cy="82" r="22.5" fill="#fff"></circle><path fill="#e1e1e3" d="M256,59.5c-2.6,0-5.1,0.4-7.5,1.3c11.7,4.1,17.8,17,13.7,28.7c-2.3,6.4-7.3,11.4-13.7,13.7
	c11.7,4.1,24.6-2,28.7-13.7s-2-24.6-13.7-28.7C261.1,59.9,258.6,59.5,256,59.5z"></path><path fill="#aeadb3" d="M459.5,178.5h-407c-8.3,0-15-6.7-15-15l0,0l0.3-22.1h437l-0.3,22.1C474.5,171.8,467.8,178.5,459.5,178.5
	L459.5,178.5z"></path><path fill="#8b8893" d="M444.8,141.4l-0.3,22.1c0,8.3-6.7,15-15,15l0,0h30c8.3,0,15-6.7,15-15l0,0l0.3-22.1H444.8z"></path><path fill="#aeadb3" d="M504.5,504.5H7.5l10.9-21.7c2.5-5.1,7.7-8.3,13.4-8.3h448.5c5.7,0,10.9,3.2,13.4,8.3L504.5,504.5z"></path><path fill="#8b8893" d="M493.6,482.8c-2.5-5.1-7.7-8.3-13.4-8.3h-30c5.7,0,10.9,3.2,13.4,8.3l10.9,21.7h30L493.6,482.8z"></path><path fill="#dadadc" d="M474.5,474.5h-437l10.8-21.7c2.5-5.1,7.7-8.3,13.4-8.3h388.5c5.7,0,10.9,3.2,13.4,8.3L474.5,474.5z"></path><path fill="#c8c5cc" d="M463.6,452.8c-2.5-5.1-7.7-8.3-13.4-8.3h-30c5.7,0,10.9,3.2,13.4,8.3l10.9,21.7h30L463.6,452.8z"></path><path fill="#fed947" d="M256,393.7c-45.6,0-82.5-36.9-82.5-82.5c0-45.6,36.9-82.5,82.5-82.5s82.5,36.9,82.5,82.5
	c0,21.9-8.7,42.9-24.2,58.3C298.9,385.1,277.9,393.8,256,393.7z"></path><path fill="#fecc30" d="M314.3,252.9c-15.4-15.5-36.4-24.2-58.3-24.2c-4.2,0-8.4,0.3-12.5,0.9c45,6.9,75.9,49.1,69,94.1
	c-5.5,35.6-33.4,63.5-69,69c4.1,0.6,8.3,0.9,12.5,0.9c45.6,0,82.5-37,82.5-82.5C338.5,289.3,329.8,268.3,314.3,252.9L314.3,252.9z"></path><path fill="#f8be32" d="M256,401.2c-49.7,0-90-40.3-90-90s40.3-90,90-90s90,40.3,90,90c0,23.9-9.5,46.8-26.4,63.6
	C302.8,391.8,279.9,401.3,256,401.2z M256,236.2c-41.4,0-75,33.5-75.1,74.9s33.5,75,74.9,75.1s75-33.5,75.1-74.9
	c0-19.9-7.9-39-21.9-53.1C295,244.1,275.9,236.2,256,236.2L256,236.2z"></path><path fill="#fff" d="M247.1,326.2h-20.3c-4.1,0-7.5-3.4-7.5-7.5c0-4.1,3.4-7.5,7.5-7.5h20.3c9.7,0,17.5-7.8,17.5-17.5
	s-7.8-17.5-17.5-17.5l0,0h-14.6c-4.1,0-7.5-3.4-7.5-7.5s3.4-7.5,7.5-7.5h14.6c17.9,0,32.5,14.6,32.5,32.5S265.1,326.2,247.1,326.2z"></path><path fill="#fff" d="M285.8 276.2h-59c-4.1 0-7.5-3.4-7.5-7.5 0-4.1 3.4-7.5 7.5-7.5h59c4.1 0 7.5 3.4 7.5 7.5S289.9 276.2 285.8 276.2zM285.8 300.8h-59c-4.1 0-7.5-3.4-7.5-7.5 0-4.1 3.4-7.5 7.5-7.5h59c4.1 0 7.5 3.4 7.5 7.5S289.9 300.8 285.8 300.8zM271.2 369.6c-2 0-3.8-.8-5.2-2.1L221.2 324c-3-2.9-3.1-7.6-.3-10.6 2.9-3 7.6-3.1 10.6-.3 0 0 .1.1.1.1l44.7 43.5c3 2.9 3 7.6.2 10.6C275.1 368.8 273.2 369.6 271.2 369.6L271.2 369.6z"></path></svg>