<svg xmlns="http://www.w3.org/2000/svg" viewBox="0 0 512 512" id="best-seller"><g data-name="Best Seller"><path fill="#d89071" d="M280.76,249.48a53.41,53.41,0,0,1,13.38.09s2.17.29,5.35,1.08a70,70,0,0,1,11.44,4.09c10.07,4.77,27,34.62,33.58,44.88a123.54,123.54,0,0,0,30.68,32.29l-26.8,35.52a183.28,183.28,0,0,1-38.59-31.8c-13.14-14.48-17.8-25-19.85-30.42-1.09-2.86-1.83-5.29-2.3-7C285,288.9,283,276.7,280.76,249.48Z"></path><path fill="#ffb833" d="M278.68 47.76a26.88 26.88 0 016.74 4.49 28.14 28.14 0 018.17 14.1 20.81 20.81 0 015.11-13.08 20.57 20.57 0 0110-6.13 19.22 19.22 0 01-9.2-3.88A20 20 0 01292.37 31a17.71 17.71 0 01-3.07 9.6A18.06 18.06 0 01278.68 47.76zM353.61 408a20.56 20.56 0 015.16 3.44A21.51 21.51 0 01365 422.26a15.48 15.48 0 0111.56-14.69 14.78 14.78 0 01-7-3 15.34 15.34 0 01-5.47-9.38 13.41 13.41 0 01-2.34 7.34A13.69 13.69 0 01353.61 408zM110.86 173.32a20.46 20.46 0 015.15 3.43 21.46 21.46 0 016.25 10.79 15.86 15.86 0 013.91-10 15.58 15.58 0 017.66-4.69 14.92 14.92 0 01-7-3 15.21 15.21 0 01-5.46-9.38 13.56 13.56 0 01-2.35 7.35A13.81 13.81 0 01110.86 173.32z"></path><path fill="#d89071" d="M221.71,214.43s-2.69,25.19-9.9,31.48-30.76,2.42-42,20.83,19.83,100.26,6.23,170c0,0,91,29.06,151.73,0,0,0-10.24-47.14-9.64-89.11S323.26,274,315,259.47s-44.17-10.17-51.15-18.4-7.41-26.64-7.41-26.64Z"></path><path fill="#aaeeea" d="M207.8,248.08s2.71,15.38,26,18,34.45-22.3,34.45-22.3,35.17,4.47,44.13,9.57,37.18,51,37.18,51a72.26,72.26,0,0,1-3.51,18,73.73,73.73,0,0,1-18.89,29.66l-8.28-5.49s5,70.39,14.69,95.58c0,0-99.11,36.32-182.11-7.75-44.09-68.31-40.26-140.58-4.67-170.33C152.75,259.09,171.34,245.52,207.8,248.08Z"></path><path fill="#d17352" d="M183.62,156.6a13.66,13.66,0,0,0-10.27-3.54,10.42,10.42,0,0,0-6.12,2.56c-5.44,5.49-2.66,22.06,7.24,26,5.54,2.19,11.23-.39,13.15-1.37Q185.61,168.42,183.62,156.6Z"></path><path fill="#383333" d="M178.15,176.29a.38.38,0,0,1-.25-.09c-2.52-2.26-3.71-4.65-3.54-7.12.2-3,2.33-5.28,3.63-6.42l-8.14.68a.39.39,0,0,1-.41-.34.38.38,0,0,1,.34-.41l9.39-.78a.37.37,0,0,1,.24.68s-4,2.78-4.3,6.64c-.15,2.23,1,4.42,3.29,6.51a.37.37,0,0,1,0,.53A.36.36,0,0,1,178.15,176.29Z"></path><path fill="#d17352" d="M299.09,161.52a13.63,13.63,0,0,1,10.3-3.44,10.48,10.48,0,0,1,6.1,2.63c5.38,5.54,2.43,22.08-7.52,25.89-5.55,2.13-11.22-.51-13.12-1.5Q297,173.31,299.09,161.52Z"></path><path fill="#383333" d="M304.35,181.27a.37.37,0,0,1-.28-.13.38.38,0,0,1,0-.53c2.35-2.07,3.49-4.24,3.36-6.47-.22-3.86-4.19-6.66-4.23-6.69a.36.36,0,0,1-.14-.43.39.39,0,0,1,.39-.25l9.37.89a.37.37,0,0,1,.34.4.38.38,0,0,1-.41.34l-8.14-.76c1.29,1.15,3.39,3.47,3.57,6.46.14,2.46-1.08,4.85-3.62,7.08A.38.38,0,0,1,304.35,181.27Z"></path><path fill="#d89071" d="M309.75,146.82C305.81,185.26,286.26,216,258.39,225a55.35,55.35,0,0,1-28,1.61c-28.29-6.09-50.45-36.53-56.26-76.77Z"></path><circle cx="241.96" cy="143.02" r="67.79" fill="#d89071"></circle><path fill="#383333" d="M202.48 148.93a22.5 22.5 0 0113-3.77c3.12 0 7.35.07 8.58 2.56a3.42 3.42 0 01-.21 3.45c-1.53 1.92-5.15 0-11.1-.24-7.83-.33-13 2.47-13.51 1.33C198.89 151.43 201.47 149.64 202.48 148.93zM282.6 152.15a22.34 22.34 0 00-12.79-4.38c-3.13-.12-7.35-.28-8.69 2.15a3.41 3.41 0 000 3.45c1.43 2 5.14.26 11.1.29 7.84 0 12.9 3.08 13.43 2C286.07 154.81 283.58 152.9 282.6 152.15zM247.79 180.16h0c-1.72-.08-10.3-.63-11-3.38s5.72-13.54 6.46-14.77a.51.51 0 01.69-.18.51.51 0 01.17.69c-2.7 4.51-6.82 12.3-6.36 14 .41 1.5 6.17 2.45 10.12 2.64a.5.5 0 010 1z"></path><ellipse cx="205.75" cy="183.77" fill="#d17352" rx="5.41" ry="8.69" transform="rotate(-87.34 205.76 183.77)"></ellipse><ellipse cx="276.89" cy="183.47" fill="#d17352" rx="5.41" ry="8.69" transform="rotate(-87.34 276.903 183.47)"></ellipse><circle cx="269.83" cy="166.36" r="5.96" fill="#383333"></circle><circle cx="215.76" cy="166.36" r="5.96" fill="#383333"></circle><path fill="#d89071" d="M348.24,254.66c-.54,9.29-1.58,25.22-3.49,45.1-4.14,43.2-8,59.84,2.67,67.42,6.76,4.79,17.87,4.92,25.3.9C392,357.67,387.9,320.22,385.19,296a210.09,210.09,0,0,0-9.3-42.58Z"></path><polygon fill="#ff535c" points="181.64 479.59 180.03 336.49 111.26 337.9 112.88 481 146.45 447.1 181.64 479.59"></polygon><polygon fill="#ffb833" points="138.05 450.78 136.44 335.98 67.67 337.11 69.29 451.91 102.86 424.72 138.05 450.78"></polygon><circle cx="122.34" cy="288.79" r="83.34" fill="#ffb833"></circle><path fill="#383333" d="M122.28 353.35A63.68 63.68 0 11186 289.67 63.76 63.76 0 01122.28 353.35zm0-126.36A62.68 62.68 0 10185 289.67 62.76 62.76 0 00122.28 227zM121.57 372.39c-17.5 0-30.06-4.21-38.08-8.25-11.09-5.58-16-11.87-16.21-12.13a.5.5 0 01.79-.61c.19.25 20.12 25.28 68.79 19a.5.5 0 01.13 1A118.94 118.94 0 01121.57 372.39z"></path><path fill="#fff3e3" fill-rule="evenodd" d="M97.83,258.17s12.85-7.48,16.88-12.76,18.79-4.41,21.44-2.86-3.09,64.07-2.43,66.49,12.77,1.55,13,3.09-.44,13.5-2.2,14.82-43.74-.94-45.65-2.67.44-16,1.91-16.7,10.71-.15,11-1.47,4.55-43.45,3.81-43.75S97,262.05,97.83,258.17Z"></path><path fill="#d89071" d="M37.67,264s-3.09,2.21,0,6.84,14.67,8.28,17.1,6-6.29-9.82-6.29-9.82,14.13,6.4,15.56,2.43-7.53-10.12-12.69-12.25c0,0,14.46,6.95,18.65,4.08s-12.93-14.12-12.93-14.12,14.7,8.82,17.57,4.74S55.54,228,51.24,231s-2.1,9.55-2.1,9.55-10,2.43-4.85,12c0,0-9,1-4.86,9.6Z"></path><rect width="147.47" height="114.79" x="328.23" y="48.68" fill="#ffb833" rx="16.95"></rect><path fill="#ffb833" d="M328.13,135.71q-.18,24.61-.35,49.23c0,3.56,3.14,5.55,5.26,3.31l27.13-28.65Z"></path><path fill="#d89071" d="M348.75,258s-6.84-12.35-6.21-19.19,8.36-11.66,8.36-11.66-5.57-27.62-2.28-30S359,222.72,359,222.72s1-31.17,4.94-31.3S368.64,223,368.64,223s8.15-1.73,8,7a4.15,4.15,0,0,1,4,1.16,4.35,4.35,0,0,1-.24,5.68,6.64,6.64,0,0,1,2.92,2.62c2.34,4.15-1.36,10.13-3.79,12.92a20.92,20.92,0,0,1-8.63,5.62C361.72,261.38,353,259.32,348.75,258Z"></path><path fill="#fff3e3" d="M447.1,140.06H372.55a6,6,0,0,1,0-12h6.31a1.62,1.62,0,0,0,.49-.08H427a12.52,12.52,0,0,0,12.47-11.34l3.21-33.87a2.64,2.64,0,0,0-2.63-2.89H376.76l-2.85-18.58a1.64,1.64,0,0,0-1.62-1.39H356.84a1.64,1.64,0,1,0,0,3.27h14.05l2.8,18.31,4.1,43.29h-5.24a9.27,9.27,0,1,0,0,18.53h6.75a5.26,5.26,0,1,0,7.61,0h36.86a5.27,5.27,0,1,0,7.61,0H447.1a1.64,1.64,0,1,0,0-3.27Z"></path><path fill="#383333" d="M242.47 196.89h-.74c-10.1-.41-15.21-9-15.43-9.39a.5.5 0 01.87-.5c.2.35 5 8.51 14.6 8.89a17.73 17.73 0 0016-8.89.5.5 0 01.86.5A18.75 18.75 0 01242.47 196.89zM242.1 202.7a11.24 11.24 0 01-5.79-1.65.37.37 0 01-.12-.51.37.37 0 01.52-.12 10.25 10.25 0 0010.75 0 .37.37 0 11.39.63 10.89 10.89 0 01-5.23 1.63zM243 228.19a64.25 64.25 0 01-22.77-4.43.5.5 0 11.4-.92c.2.09 20 8.55 37.63 1.66a.5.5 0 01.65.29.51.51 0 01-.28.65A42.93 42.93 0 01243 228.19zM169.27 154.18s2-1 3.7 2.08 3.31 12.91 7.83 12.11c1.57-.28-4.7-18.39 2.83-28.9 8.72-12.18 28.33-3.42 36.89-16.15 5-7.42.46-13.56 6.78-23.25 4.35-6.66 10.75-10.26 15.5-12.27A74.61 74.61 0 00256 98.14c13.69 8.38 18.16 5 25.83 10.65 14.35 10.68 16.75 36.18 17.64 45.57.45 4.75 1.13 15.32 3.19 15.7 4.1.77 6.62-7.67 8.27-9.24a3.94 3.94 0 014-.59s16.63-95.84-63.78-88.09c-2.09-.64-43.48-12.66-65.87 10.42-10.44 10.76-13.61 25.93-15.49 35A97.49 97.49 0 00169.27 154.18zM48.89 267.68l-.12 0c-2.94-1-9.27-5-9.54-5.15a.37.37 0 01-.11-.51.36.36 0 01.51-.12c.07 0 6.52 4.08 9.39 5.07a.38.38 0 01-.13.73zM54.31 258.8h-.09c-3.36-.86-9.88-5.69-10.16-5.9a.38.38 0 01.45-.6c.07.05 6.68 5 9.89 5.77a.38.38 0 01.27.46A.36.36 0 0154.31 258.8zM59.37 248.74a.33.33 0 01-.17 0c-2.61-1.34-10.23-8-10.55-8.27a.37.37 0 010-.53.38.38 0 01.53 0c.08.07 7.87 6.87 10.4 8.16a.37.37 0 01.16.51A.35.35 0 0159.37 248.74z"></path><path fill="#fff" d="M294.85 108.16h0c-17.05-.78-28.44-19.1-28.55-19.29a.5.5 0 11.85-.52c.11.18 11.23 18.05 27.75 18.81a.5.5 0 010 1zM302.21 104.64c-9.75 0-16.61-10.93-16.91-11.41a.51.51 0 01.16-.69.5.5 0 01.69.17c.07.11 7.24 11.53 16.84 10.9a.49.49 0 01.53.47.5.5 0 01-.47.53Q302.63 104.64 302.21 104.64zM190.86 124.65l-1 0a.5.5 0 010-1c6.71.25 18.52-1.82 22.59-18.35 2.6-10.57 12.24-16.83 12.64-17.09a.5.5 0 01.54.84c-.09.06-9.71 6.32-12.21 16.49C210.41 117.73 202.22 124.65 190.86 124.65zM180.44 119.91a15.57 15.57 0 01-2.05-.14.5.5 0 01-.44-.56.51.51 0 01.56-.43c13.33 1.72 23.88-14.75 24-14.91a.5.5 0 11.84.53 44.87 44.87 0 01-7.15 8.34C191 117.46 185.62 119.91 180.44 119.91zM306.49 140.29h-.07a.49.49 0 01-.42-.56 39.33 39.33 0 00-1.67-17.51.5.5 0 01.29-.65.49.49 0 01.64.29 39.52 39.52 0 011.73 18A.51.51 0 01306.49 140.29z"></path><path fill="#383333" d="M356.22,248.09h-.07a.37.37,0,0,1-.3-.44c.6-3.26-2.72-7.4-2.75-7.45a.37.37,0,0,1,.41-.59c3.2,1.07,9.56,1,11-.1.25-.2.24-.34.23-.4-.09-1.2-7.3-6.9-14-11.65a.38.38,0,0,1-.09-.53.38.38,0,0,1,.52-.09c2.36,1.68,14.18,10.12,14.35,12.21a1.18,1.18,0,0,1-.52,1c-1.57,1.23-7.17,1.3-10.62.51,1,1.47,2.75,4.51,2.26,7.18A.38.38,0,0,1,356.22,248.09Z"></path><path fill="#383333" d="M360.2 234.52a.34.34 0 01-.23-.08.37.37 0 01-.07-.52l8.44-11.18a.37.37 0 01.52-.07.38.38 0 01.08.53l-8.44 11.17A.38.38 0 01360.2 234.52zM365.1 238.65a.4.4 0 01-.31-.16.37.37 0 01.09-.52l11.52-8.34a.38.38 0 01.44.61l-11.52 8.34A.44.44 0 01365.1 238.65zM365.3 244.22a2.57 2.57 0 01-1.83-.68 4.33 4.33 0 01-1-3.07.41.41 0 01.4-.35.37.37 0 01.35.4A3.59 3.59 0 00364 243a2.06 2.06 0 001.71.45c3-.37 14.42-6.93 14.53-7a.39.39 0 01.52.14.37.37 0 01-.14.51c-.48.28-11.64 6.71-14.82 7.09z"></path><path fill="#383333" d="M370.24 247.72a4.2 4.2 0 01-1.12-.13 3.61 3.61 0 01-2.78-4.06.37.37 0 01.43-.31.39.39 0 01.31.43 2.84 2.84 0 002.23 3.22c2.83.77 10.88-2.77 11-2.81a.37.37 0 01.49.2.36.36 0 01-.19.49C380.27 244.88 373.8 247.72 370.24 247.72zM342.62 359.37a.48.48 0 01-.45-.27c-3.95-7.68-1.54-23.74-1.43-24.42a.49.49 0 01.57-.42.49.49 0 01.41.57c0 .16-2.46 16.42 1.34 23.82a.49.49 0 01-.22.67A.44.44 0 01342.62 359.37zM318.84 347.1a.51.51 0 01-.47-.32c-5-13.39-7.83-51.9-7.86-52.29A.5.5 0 01311 294a.49.49 0 01.54.46c0 .39 2.88 38.75 7.8 52a.5.5 0 01-.29.64z"></path><path fill="#fff" d="M189.84 91.11a2.5 2.5 0 01-2.13-3.8c.35-.57 8.71-14 24.16-14.59a2.5 2.5 0 01.19 5c-12.73.48-20 12.08-20.08 12.2A2.54 2.54 0 01189.84 91.11zM222.38 219.34a2.5 2.5 0 01-.66-.09c-8.09-2.21-16.53-11-16.89-11.34a2.5 2.5 0 013.61-3.46c.08.09 7.86 8.13 14.6 10a2.5 2.5 0 01-.66 4.91zM317.5 269a2.51 2.51 0 01-2.17-1.26 21.29 21.29 0 00-16.46-10.61 2.5 2.5 0 01.21-5 26.33 26.33 0 0120.59 13.12 2.5 2.5 0 01-.92 3.41A2.45 2.45 0 01317.5 269zM146.75 221.56a2.52 2.52 0 01-1.18-.3c-14.65-7.86-42.59-2-42.87-2a2.5 2.5 0 11-1-4.9c1.21-.26 30-6.26 46.28 2.47a2.5 2.5 0 01-1.19 4.7zM75.37 351.92a2.53 2.53 0 01-1.34-.38c-12.33-7.8-21.75-27.09-22.15-27.91a2.5 2.5 0 014.5-2.18c.09.19 9.21 18.83 20.33 25.86a2.5 2.5 0 01-1.34 4.61zM75.37 440.56a2.49 2.49 0 01-2.5-2.5V415.3a2.5 2.5 0 015 0V433l6.64-5.12a2.5 2.5 0 013 4L76.9 440A2.48 2.48 0 0175.37 440.56zM130.59 421a2.5 2.5 0 01-2.5-2.5V390.6a2.5 2.5 0 015 0v27.85A2.5 2.5 0 01130.59 421zM119.2 462.12a2.5 2.5 0 01-2.5-2.5V446.06a2.5 2.5 0 015 0v13.56A2.5 2.5 0 01119.2 462.12zM173 430.88a2.5 2.5 0 01-2.5-2.5V376.31a2.5 2.5 0 015 0v52.07A2.5 2.5 0 01173 430.88zM317.55 420.22a2.51 2.51 0 01-2.37-1.69c-3.21-9.41-5.13-37.94-5.21-39.15a2.5 2.5 0 015-.33c0 .29 2 29.08 5 37.86a2.51 2.51 0 01-1.56 3.18A2.54 2.54 0 01317.55 420.22zM373.57 362.5a2.5 2.5 0 01-1.56-4.45c5.21-4.17 6.8-16.51 7-20.91a2.5 2.5 0 015 .19c0 .74-.78 18.17-8.85 24.63A2.47 2.47 0 01373.57 362.5zM426.69 56.08H410.87a2.5 2.5 0 010-5h15.82a2.5 2.5 0 010 5zM334.5 149.32a2.5 2.5 0 01-2.5-2.5V119.28a2.5 2.5 0 115 0v27.54A2.5 2.5 0 01334.5 149.32zM453.72 160.88l-1.29 0a2.5 2.5 0 11.26-5c4.05.2 7.32-.82 9.72-3 4.49-4.16 4.72-11.29 4.72-11.36a2.52 2.52 0 012.56-2.44 2.49 2.49 0 012.44 2.55c0 .37-.26 9.26-6.29 14.89A17.18 17.18 0 01453.72 160.88zM468.35 121.34c-4.33 0-3.69 6.71.63 6.71S472.67 121.34 468.35 121.34zM442.44 50.86c-4.33 0-3.69 6.72.62 6.72S446.76 50.86 442.44 50.86zM334.43 159.36c-4.33 0-3.69 6.71.63 6.71S338.75 159.36 334.43 159.36zM378.75 319.19c-4.34 0-3.69 6.72.62 6.72S383.07 319.19 378.75 319.19zM322.44 272c-4.33 0-3.69 6.71.63 6.71S326.76 272 322.44 272zM233.45 216c-4.34 0-3.7 6.71.62 6.71S237.76 216 233.45 216zM162.25 225.71c-4.34 0-3.7 6.72.62 6.72S166.57 225.71 162.25 225.71zM85 221.6c-4.34 0-3.7 6.71.62 6.71S89.31 221.6 85 221.6zM47.94 303.21c-4.33 0-3.69 6.71.63 6.71S52.26 303.21 47.94 303.21zM91.29 353.58c-4.33 0-3.69 6.71.63 6.71S95.61 353.58 91.29 353.58zM76 390.63c-4.34 0-3.7 6.72.62 6.72S80.35 390.63 76 390.63zM131 428.41c-4.34 0-3.7 6.71.62 6.71S135.32 428.41 131 428.41zM172.9 442.94c-4.33 0-3.69 6.72.63 6.72S177.22 442.94 172.9 442.94zM309.49 358.42c-4.34 0-3.69 6.72.62 6.72S313.81 358.42 309.49 358.42zM322.57 427.2c-4.34 0-3.7 6.71.62 6.71S326.88 427.2 322.57 427.2zM222.47 72.18c-4.34 0-3.7 6.71.62 6.71S226.79 72.18 222.47 72.18z"></path></g></svg>