<svg xmlns="http://www.w3.org/2000/svg" viewBox="0 0 512 512" id="delivery-truck"><defs><clipPath id="a"><path fill="none" d="M272.9,284.92h158a37.33,37.33,0,0,1,37.33,37.33v67.9A11.26,11.26,0,0,1,457,401.42H272.9a0,0,0,0,1,0,0V284.92A0,0,0,0,1,272.9,284.92Z"></path></clipPath><clipPath id="b"><path fill="none" d="M354.44,198.32h31.27a33,33,0,0,1,33,33V277.2a3,3,0,0,1-3,3H354.44a3,3,0,0,1-3-3V201.32A3,3,0,0,1,354.44,198.32Z"></path></clipPath></defs><g data-name="Delivery Truck"><path fill="#ffb833" d="M385.7 95.22a29.6 29.6 0 017.47 5 31.18 31.18 0 019.06 15.63 23 23 0 015.66-14.5A22.67 22.67 0 01419 94.54a21.45 21.45 0 01-10.19-4.3 22.13 22.13 0 01-7.93-13.59 19.54 19.54 0 01-3.4 10.64A20 20 0 01385.7 95.22zM455.55 238.24a22.4 22.4 0 015.71 3.81A23.82 23.82 0 01468.19 254a17.52 17.52 0 014.33-11.09 17.3 17.3 0 018.48-5.19 16.38 16.38 0 01-7.79-3.29A16.93 16.93 0 01467.15 224a15 15 0 01-2.6 8.14A15.31 15.31 0 01455.55 238.24zM161 127.14a22.7 22.7 0 015.72 3.81 23.79 23.79 0 016.92 12A17.65 17.65 0 01178 131.81a17.32 17.32 0 018.49-5.19 16.41 16.41 0 01-7.8-3.29 16.93 16.93 0 01-6.06-10.39 15 15 0 01-2.59 8.14A15.25 15.25 0 01161 127.14z"></path><path fill="#ff535c" d="M272.54,181.88H387a43.32,43.32,0,0,1,43.32,43.32v100.5a0,0,0,0,1,0,0H272.54a0,0,0,0,1,0,0V181.88A0,0,0,0,1,272.54,181.88Z"></path><g clip-path="url(#a)"><path fill="#ff535c" d="M272.9,284.92h158a37.33,37.33,0,0,1,37.33,37.33v67.9A11.26,11.26,0,0,1,457,401.42H272.9a0,0,0,0,1,0,0V284.92A0,0,0,0,1,272.9,284.92Z"></path><rect width="43.66" height="25.05" x="434.99" y="357.2" fill="#fff3e3" rx="5.5"></rect></g><rect width="303.36" height="242.43" x="31" y="158.98" fill="#ffb833" rx="6.69"></rect><circle cx="130.75" cy="402.47" r="46.88" fill="#383333"></circle><path fill="#00ccc1" d="M31 222.12H179.29a3.39 3.39 0 013.39 3.39v2.92a3.38 3.38 0 01-3.38 3.38H31a0 0 0 010 0v-9.69A0 0 0 0131 222.12zM31 256H224.42a3.39 3.39 0 013.39 3.39v2.92a3.38 3.38 0 01-3.38 3.38H31a0 0 0 010 0V256A0 0 0 0131 256zM31 289.9H255.19a3.39 3.39 0 013.39 3.39v2.92a3.38 3.38 0 01-3.38 3.38H31a0 0 0 010 0V289.9A0 0 0 0131 289.9z"></path><circle cx="130.75" cy="402.47" r="17.18" fill="#00ccc1"></circle><circle cx="385.08" cy="402.47" r="46.88" fill="#383333"></circle><circle cx="385.08" cy="402.47" r="17.18" fill="#00ccc1"></circle><g clip-path="url(#b)"><path fill="#00ccc1" d="M354.44,198.32h31.27a33,33,0,0,1,33,33V277.2a3,3,0,0,1-3,3H354.44a3,3,0,0,1-3-3V201.32A3,3,0,0,1,354.44,198.32Z"></path><polygon fill="#aaeeea" points="368.8 189.76 418.71 280.29 410.66 285.26 360.21 193.69 351.44 199.78 403.86 285.26 399.57 290.11 345.89 209.08 342.67 193.69 360.21 181.88 368.8 189.76"></polygon></g><path fill="#fff" d="M38.16 189.19a2.49 2.49 0 01-2.5-2.5V165.76a2.5 2.5 0 012.5-2.5h9.48a2.5 2.5 0 010 5h-7v18.43A2.49 2.49 0 0138.16 189.19zM202 168.26H177.71a2.5 2.5 0 010-5H202a2.5 2.5 0 010 5zM327.29 206.55a2.5 2.5 0 01-2.5-2.5V176.14a2.5 2.5 0 015 0v27.91A2.5 2.5 0 01327.29 206.55zM415.67 210a2.49 2.49 0 01-2.21-1.34c-5.51-10.53-24.92-16.05-25.12-16.11a2.5 2.5 0 011.34-4.81c.89.24 21.7 6.15 28.21 18.6a2.5 2.5 0 01-1.06 3.37A2.43 2.43 0 01415.67 210zM37.71 363a2.5 2.5 0 01-2.5-2.5V341.46a2.5 2.5 0 015 0v19.05A2.5 2.5 0 0137.71 363zM73.67 395.75H54.35a2.5 2.5 0 010-5H73.67a2.5 2.5 0 110 5zM166.26 366a2.49 2.49 0 01-1.77-.73c-9.22-9.22-23.72-11.75-23.87-11.78a2.5 2.5 0 01.82-4.93c.66.11 16.21 2.8 26.59 13.18a2.5 2.5 0 01-1.77 4.26zM272.9 398.17h-32a2.5 2.5 0 110-5h32a2.5 2.5 0 010 5zM341.78 370.79a2.49 2.49 0 01-1.91-4.11c.39-.46 9.75-11.4 27.42-15.84a2.5 2.5 0 111.22 4.85c-16.12 4.05-24.73 14.11-24.82 14.22A2.5 2.5 0 01341.78 370.79zM459.86 329.73a2.5 2.5 0 01-2.49-2.34c-.77-12.41-4.19-18.89-6.93-22.14s-5.46-4-5.57-4a2.53 2.53 0 01-1.93-2.95 2.47 2.47 0 012.89-2c.61.11 14.82 3.09 16.53 30.75a2.5 2.5 0 01-2.34 2.65zM461.49 338.81c-4.81 0-4.1 7.44.69 7.44S466.27 338.81 461.49 338.81zM429.64 290.15c-4.81 0-4.09 7.44.69 7.44S434.42 290.15 429.64 290.15zM422.84 218.58c-4.8 0-4.09 7.44.69 7.44S427.62 218.58 422.84 218.58zM370.6 186c-4.81 0-4.1 7.44.69 7.44S375.38 186 370.6 186zM325.15 222.51c-4.8 0-4.09 7.45.69 7.45S329.94 222.51 325.15 222.51zM222.45 163.11c-4.8 0-4.09 7.45.69 7.45S227.24 163.11 222.45 163.11zM144.45 163.47c-4.81 0-4.1 7.44.69 7.44S149.23 163.47 144.45 163.47zM68.58 162.4c-4.8 0-4.09 7.44.7 7.44S73.37 162.4 68.58 162.4zM38.17 205.7c-4.81 0-4.09 7.44.69 7.44S43 205.7 38.17 205.7zM37.45 312.33c-4.8 0-4.09 7.44.69 7.44S42.24 312.33 37.45 312.33zM37.45 375.31c-4.8 0-4.09 7.44.69 7.44S42.24 375.31 37.45 375.31zM81.47 374.24c-4.81 0-4.1 7.44.69 7.44S86.25 374.24 81.47 374.24zM124.76 344.89c-4.8 0-4.09 7.45.7 7.45S129.55 344.89 124.76 344.89zM177 372.8c-4.81 0-4.09 7.45.69 7.45S181.79 372.8 177 372.8zM215.65 390c-4.8 0-4.09 7.44.7 7.44S220.44 390 215.65 390zM293.66 390.7c-4.8 0-4.09 7.44.69 7.44S298.45 390.7 293.66 390.7zM333.74 378.53c-4.81 0-4.09 7.44.69 7.44S338.52 378.53 333.74 378.53zM387.06 344.89c-4.81 0-4.1 7.45.69 7.45S391.84 344.89 387.06 344.89z"></path><circle cx="290.39" cy="123.64" r="60.99" fill="#aaeeea"></circle><path fill="#00ccc1" d="M276.47,158.11l-.6,0a5.52,5.52,0,0,1-4.05-2.54l-18.25-29a5.5,5.5,0,0,1,9.31-5.86l14.56,23.12,44.15-44.48a5.5,5.5,0,0,1,7.81,7.75l-49,49.38A5.5,5.5,0,0,1,276.47,158.11Z"></path><path fill="#fff" d="M307.34 77.82a2.6 2.6 0 01-1-.2 46.84 46.84 0 00-35.78-.05 2.5 2.5 0 01-2.17-4.5 51.07 51.07 0 0139.91 0 2.5 2.5 0 01-1 4.8zM290.75 180a77.21 77.21 0 01-14.66-1.43 2.5 2.5 0 111-4.89c.17 0 17 3.49 28.07-1a2.5 2.5 0 111.88 4.64C302 179.39 296.06 180 290.75 180zM341.78 133.28a2.34 2.34 0 01-1-.2 2.5 2.5 0 01-1.34-3.27c3.87-9.18 0-21.2-.06-21.32a2.5 2.5 0 114.74-1.58c.19.56 4.54 13.9-.07 24.84A2.49 2.49 0 01341.78 133.28zM338.75 142.8c-4.81 0-4.09 7.45.69 7.45S343.53 142.8 338.75 142.8zM331.59 88.41c-4.8 0-4.09 7.45.69 7.45S336.38 88.41 331.59 88.41zM253.58 85.19c-4.8 0-4.09 7.45.7 7.45S258.37 85.19 253.58 85.19zM256.81 159.27c-4.81 0-4.1 7.44.69 7.44S261.59 159.27 256.81 159.27z"></path></g></svg>